<svg xmlns:xlink="http://www.w3.org/1999/xlink" width="34.093" xmlns="http://www.w3.org/2000/svg" height="33.096" id="screenshot-27f2fc2d-ac16-80af-8003-fb4964c84192" viewBox="-0.046 -0.048 34.093 33.096" style="-webkit-print-color-adjust: exact;" fill="none" version="1.1"><g id="shape-27f2fc2d-ac16-80af-8003-fb4964c84192" class="svg-icon" version="1.1" rx="0" ry="0" style="fill: rgb(0, 0, 0);"><g id="shape-27f2fc2d-ac16-80af-8003-fb4964d50b4c"><g class="fills" id="fills-27f2fc2d-ac16-80af-8003-fb4964d50b4c"><path rx="0" ry="0" d="M10.472,16.386C7.748,15.074,5.905,12.439,5.896,9.271C5.883,4.915,9.545,1.341,14.033,1.328C18.521,1.316,22.203,4.869,22.216,9.225C22.228,13.515,18.769,17.023,14.350,17.167L14.282,17.168C7.550,17.187,2.057,22.548,2.075,29.082C2.076,29.478,1.805,29.743,1.397,29.744C0.989,29.745,0.716,29.482,0.715,29.086C0.698,23.080,4.832,17.986,10.472,16.386ZZM14.074,15.848C17.814,15.838,20.866,12.859,20.856,9.229C20.845,5.599,17.777,2.638,14.037,2.648C10.297,2.659,7.245,5.637,7.256,9.267C7.266,12.897,10.334,15.859,14.074,15.848ZZM32.718,20.152L32.855,20.481L31.229,22.400C30.958,22.731,30.959,23.259,31.232,23.588L32.869,25.431L32.734,25.762C32.397,26.687,31.923,27.612,31.245,28.340L30.974,28.605L28.457,28.216C28.049,28.151,27.574,28.416,27.439,28.813L26.561,31.191L26.222,31.258C24.930,31.526,23.638,31.529,22.346,31.269L21.937,31.204L21.115,28.896C20.978,28.501,20.501,28.238,20.093,28.305L17.510,28.709L17.238,28.445C16.897,28.116,16.624,27.721,16.418,27.326C16.145,26.864,15.872,26.337,15.734,25.810L15.597,25.480L17.292,23.627C17.563,23.296,17.562,22.768,17.289,22.505L15.652,20.596L15.787,20.265C16.124,19.274,16.665,18.415,17.343,17.621L17.614,17.356L20.064,17.745C20.472,17.810,20.947,17.545,21.150,17.148L22.027,14.836L22.367,14.769C23.590,14.501,24.882,14.498,26.175,14.758L26.583,14.823L27.406,17.065C27.543,17.460,28.020,17.789,28.495,17.722L31.011,17.385L31.283,17.648C31.624,18.043,31.897,18.372,32.103,18.834C32.308,19.163,32.513,19.690,32.718,20.152ZZM30.812,19.365C30.675,19.102,30.539,18.904,30.334,18.640L28.567,18.843C27.479,18.979,26.389,18.322,26.046,17.333L25.498,15.816C24.682,15.686,23.866,15.689,23.050,15.823L22.443,17.409C22.105,18.400,20.951,19.063,19.863,18.868L18.162,18.609C17.755,19.072,17.485,19.667,17.214,20.195L18.374,21.512C19.056,22.302,19.060,23.556,18.382,24.350L17.230,25.673C17.367,26.003,17.503,26.267,17.708,26.596C17.845,26.860,17.982,27.057,18.186,27.255L20.022,26.986C21.109,26.850,22.199,27.507,22.542,28.496L23.090,30.079C23.907,30.209,24.791,30.206,25.606,30.072L26.214,28.420C26.551,27.429,27.705,26.766,28.725,26.961L30.426,27.220C30.765,26.757,31.103,26.228,31.306,25.634L30.214,24.383C29.532,23.593,29.460,22.339,30.138,21.545L31.291,20.222C31.154,19.958,31.017,19.695,30.812,19.365ZZM24.303,25.983C22.603,25.988,21.239,24.672,21.234,23.022C21.230,21.372,22.586,20.048,24.286,20.044C25.986,20.039,27.350,21.355,27.354,23.005C27.359,24.655,25.935,25.979,24.303,25.983ZZM24.299,24.663C25.251,24.661,25.997,23.933,25.994,23.009C25.992,22.085,25.242,21.361,24.290,21.364C23.338,21.366,22.592,22.094,22.594,23.018C22.597,23.942,23.347,24.666,24.299,24.663ZZ" style="width: 1em; height: 1em; vertical-align: middle; overflow: hidden; fill: rgb(255, 255, 255); fill-opacity: 1;"/></g></g></g></svg>