<?xml version="1.0" encoding="UTF-8" standalone="no"?>
<!-- Created with Inkscape (http://www.inkscape.org/) -->

<svg
   width="136.25299mm"
   height="39.903008mm"
   viewBox="0 0 136.25299 39.903008"
   version="1.1"
   id="svg5"
   xml:space="preserve"
   xmlns:inkscape="http://www.inkscape.org/namespaces/inkscape"
   xmlns:sodipodi="http://sodipodi.sourceforge.net/DTD/sodipodi-0.dtd"
   xmlns="http://www.w3.org/2000/svg"
   xmlns:svg="http://www.w3.org/2000/svg"><sodipodi:namedview
     id="namedview7"
     pagecolor="#505050"
     bordercolor="#eeeeee"
     borderopacity="1"
     inkscape:showpageshadow="0"
     inkscape:pageopacity="0"
     inkscape:pagecheckerboard="0"
     inkscape:deskcolor="#505050"
     inkscape:document-units="mm"
     showgrid="false" /><defs
     id="defs2" /><g
     inkscape:label="Layer 1"
     inkscape:groupmode="layer"
     id="layer1"
     transform="translate(-36.873513,-72.857466)"><path
       style="fill:#000000;stroke-width:0.264583"
       d="m 55.380487,112.37799 c -0.852307,-0.20632 -2.161158,-0.68227 -2.908555,-1.05767 -1.949098,-0.97898 -13.653402,-9.88101 -14.234239,-10.82624 -1.016524,-1.654252 -0.440777,-4.18382 1.176754,-5.17009 1.018064,-0.62076 1.990528,-0.6558 3.277402,-0.1181 0.526987,0.22019 0.999904,0.3586 1.050924,0.30758 0.051,-0.051 -1.471974,-3.29703 -3.384402,-7.21337 -2.738065,-5.60707 -3.478779,-7.35519 -3.484759,-8.22423 -0.0137,-1.99861 1.405691,-3.3668 3.485239,-3.35941 2.293188,0.008 2.758895,0.46948 4.918613,4.87227 1.704881,3.47556 1.980128,3.89674 2.296945,3.51471 0.47461,-0.57229 1.877511,-1.14582 2.802755,-1.14582 0.407007,0 1.192254,0.24238 1.744991,0.53863 l 1.004954,0.53863 0.784834,-0.66039 c 1.144754,-0.96325 2.320518,-1.10387 3.791019,-0.45339 l 1.223864,0.54138 0.956804,-0.64931 c 1.677151,-1.13815 3.816509,-0.86185 5.061833,0.65374 0.602464,0.73322 5.3299,10.61781 5.742357,12.006678 0.218597,0.73612 0.397457,2.24769 0.397457,3.35903 0,3.597262 -1.243314,6.585222 -3.804499,9.143052 -3.210402,3.2062 -7.566098,4.4515 -11.900291,3.40232 z m 7.641685,-2.47473 c 3.340972,-1.64477 5.5815,-4.67365 6.245444,-8.44299 0.46504,-2.640052 0.034,-4.222812 -2.742372,-10.07012 -1.348264,-2.83956 -2.729855,-5.49493 -3.070215,-5.90081 -1.408521,-1.67969 -3.672469,-0.46769 -3.334629,1.78518 0.133657,0.89128 0.0795,1.1388 -0.27934,1.2765 -0.624307,0.23957 -0.887784,0.0121 -1.363691,-1.17731 -0.22817,-0.57025 -0.772487,-1.33774 -1.209594,-1.70555 -0.889494,-0.74847 -1.528841,-0.68976 -2.536185,0.23288 -0.497657,0.4558 -0.595867,0.78162 -0.529167,1.75553 0.0726,1.06079 0.0161,1.2052 -0.500477,1.2787 -0.466407,0.0663 -0.715717,-0.18025 -1.251894,-1.23836 -1.049174,-2.07047 -2.160358,-2.61896 -3.351569,-1.65437 -0.45755,0.3705 -0.650667,0.85993 -0.756907,1.91823 -0.12005,1.19592 -0.22624,1.42081 -0.670827,1.42081 -0.422077,0 -1.033354,-1.01921 -3.042682,-5.07324 -1.382981,-2.79028 -2.677905,-5.26082 -2.877625,-5.4901 -0.477337,-0.54798 -2.110068,-0.53539 -2.724882,0.021 -0.27941,0.25286 -0.47758,0.78388 -0.469,1.25677 0.009,0.4957 1.666561,4.21244 4.199849,9.41729 2.301735,4.72912 4.131296,8.738268 4.065696,8.909228 -0.25518,0.665 -0.863007,0.51831 -3.009922,-0.72642 -1.225274,-0.71039 -2.420088,-1.2942 -2.655115,-1.29735 -0.23504,-0.003 -0.741057,0.24103 -1.124474,0.54263 -0.746047,0.58685 -0.926687,1.70335 -0.42672,2.63754 0.14873,0.27791 2.248048,2.000892 4.665156,3.828852 9.980183,7.54762 10.063503,7.59126 14.261929,7.47141 2.411095,-0.0688 2.832892,-0.16054 4.489213,-0.97594 z m 44.310958,2.73375 c -0.36381,-0.0672 -1.50703,-0.42151 -2.54051,-0.78731 -1.54908,-0.54831 -3.02508,-1.52272 -8.405425,-5.54902 -3.86659,-2.89349 -6.73965,-5.23367 -7.04966,-5.74213 -0.34416,-0.564472 -0.52361,-1.330522 -0.52426,-2.238082 -7.9e-4,-1.16427 0.12618,-1.5247 0.81297,-2.306898 1.18661,-1.35147 2.56849,-1.49409 4.93483,-0.5093 0.38741,0.16123 -0.61303,-2.06399 -3.85164,-8.56697 -1.32176,-2.65405 -2.55005,-5.33295 -2.72953,-5.95313 -0.17947,-0.62018 -0.59666,-1.45852 -0.92707,-1.86299 -1.52606,-1.8681 -0.91427,-4.77019 1.24051,-5.88447 1.08297,-0.56003 2.86532,-0.49153 3.91857,0.1506 0.83701,0.5103 1.03409,0.52302 3.55807,0.22959 4.04703,-0.47049 9.109655,0.0542 13.186835,1.36672 1.71861,0.55325 5.85191,2.38033 5.70875,2.5235 -0.0435,0.0435 -0.80841,-0.14787 -1.69978,-0.42529 -3.69103,-1.14878 -9.3439,-1.59942 -13.173295,-1.05016 -2.25991,0.32414 -5.20859,1.02937 -5.52264,1.32082 -0.12849,0.11925 0.005,0.54623 0.30132,0.96235 0.29277,0.41139 1.19707,2.14697 2.00957,3.85684 0.8125,1.70987 1.54493,3.10886 1.62762,3.10886 0.0827,0 0.48444,-0.24701 0.89277,-0.5489 1.137855,-0.84125 2.636125,-0.93996 3.966355,-0.26133 l 1.11748,0.57009 0.78812,-0.66315 c 1.15427,-0.97126 2.32176,-1.10753 3.81806,-0.44564 l 1.24763,0.55188 0.78414,-0.65981 c 0.63141,-0.5313 1.07246,-0.65981 2.2644,-0.65981 1.40673,0 1.53387,0.0574 2.55939,1.15588 1.20303,1.28859 5.45844,9.89166 6.11732,12.367248 1.67961,6.310772 -2.00709,13.188442 -8.2132,15.322012 -1.55172,0.53346 -4.89941,0.87158 -6.2177,0.628 z m 6.65425,-2.68488 c 3.23802,-1.59408 5.76264,-4.93677 6.24411,-8.26743 0.45443,-3.143602 0.0683,-4.616132 -2.73161,-10.41671 -1.41395,-2.9293 -2.81238,-5.59389 -3.10762,-5.92131 -1.30852,-1.45116 -3.56845,-0.18447 -3.24785,1.82043 0.11224,0.70192 0.0388,1.05752 -0.27155,1.3151 -0.36388,0.30199 -0.49752,0.26396 -0.92423,-0.26301 -0.27436,-0.33882 -0.49884,-0.76538 -0.49884,-0.94792 0,-0.52925 -1.06892,-1.74328 -1.76941,-2.00961 -0.45636,-0.17351 -0.86533,-0.12822 -1.41662,0.15686 -0.85027,0.43969 -1.10982,1.09571 -0.99216,2.50768 0.0651,0.7813 -0.0138,0.93884 -0.50524,1.00889 -0.46647,0.0665 -0.71564,-0.17995 -1.25189,-1.23819 -1.09234,-2.15562 -2.19723,-2.64138 -3.48617,-1.53269 -0.592945,0.51003 -0.723745,0.848 -0.742365,1.91823 -0.0192,1.10468 -0.10484,1.31088 -0.57204,1.37766 -0.47298,0.0676 -0.87795,-0.61028 -2.91042,-4.87184 -2.84434,-5.96385 -3.00021,-6.1869 -4.32355,-6.1869 -1.03822,0 -1.6732,0.47088 -1.97461,1.46431 -0.11421,0.37643 1.10944,3.1458 4.06975,9.21072 2.32818,4.76985 4.23305,8.890438 4.23305,9.156868 0,0.90123 -0.72631,0.77034 -2.94656,-0.53103 -1.21705,-0.71336 -2.44326,-1.29975 -2.72492,-1.30311 -1.37567,-0.0164 -2.22894,2.08402 -1.35405,3.3331 0.41426,0.591442 11.391275,8.988452 12.960555,9.914352 1.7297,1.02054 3.04489,1.29557 5.85426,1.22423 2.38815,-0.0607 2.83851,-0.1549 4.38998,-0.91868 z M 88.945585,77.6065 c 0.56583,-0.62523 2.31998,-1.15399 3.05471,-0.92079 1.10087,0.3494 0.14266,-1.75023 -1.01819,-2.23107 -1.95262,-0.80881 -3.85402,1.21412 -3.06755,3.26363 0.21251,0.5538 0.45222,0.52781 1.03103,-0.11177 z m 69.055245,34.9203 c -2.73187,-0.54834 -4.19135,-1.39738 -10.4193,-6.06128 -3.43781,-2.57445 -6.57299,-5.06401 -6.96708,-5.53236 -0.98225,-1.167332 -1.17641,-2.420012 -0.60643,-3.912482 0.76667,-2.007498 2.64774,-2.719398 4.80446,-1.818268 0.52242,0.21828 0.98561,0.39688 1.0293,0.39688 0.0437,0 -1.51865,-3.27347 -3.47189,-7.27437 -2.23454,-4.57709 -3.55135,-7.579 -3.55135,-8.09595 0,-1.16067 0.672,-2.43534 1.56064,-2.96027 1.13687,-0.67157 4.72376,-1.45043 8.24263,-1.78981 3.84718,-0.37105 8.23517,-0.0299 12.04488,0.93655 2.51641,0.63834 6.3175,1.95431 6.14453,2.12728 -0.0459,0.0459 -0.77556,-0.0774 -1.62141,-0.274 -2.62165,-0.60942 -7.31363,-0.99357 -9.83481,-0.80521 -2.59448,0.19383 -7.14523,1.03433 -8.35949,1.54394 l -0.76238,0.31996 1.38593,2.9721 c 0.76227,1.63466 1.46995,2.97411 1.57263,2.97657 0.10268,0.002 0.62531,-0.2932 1.1614,-0.657 1.17216,-0.79545 2.29176,-0.83955 3.65604,-0.144 l 1.01498,0.51747 0.86846,-0.6624 c 1.26996,-0.96865 2.48629,-1.08611 3.94324,-0.38081 l 1.20761,0.58459 0.81411,-0.68503 c 0.62713,-0.5277 1.1043,-0.68503 2.0776,-0.68503 1.99846,0 2.83014,0.72778 4.38445,3.83673 3.49497,6.99063 4.35608,9.02119 4.66142,10.991898 1.32296,8.538712 -6.59189,16.217992 -14.98017,14.534302 z m 5.77494,-2.09506 c 2.92923,-1.0078 5.22083,-3.10727 6.62391,-6.06856 0.76672,-1.6182 0.83032,-1.96523 0.83032,-4.530562 v -2.77813 L 168.46433,91.2772 c -1.52112,-3.17751 -3.00613,-5.94571 -3.30002,-6.15156 -0.7917,-0.55453 -1.90449,-0.45791 -2.54576,0.22104 -0.44713,0.47339 -0.537,0.82717 -0.43883,1.72742 0.0956,0.87639 0.0228,1.18597 -0.32218,1.3706 -0.59641,0.31919 -0.86899,0.087 -1.45326,-1.23809 -0.63485,-1.43978 -1.28777,-2.01427 -2.28927,-2.01427 -1.28684,0 -1.96067,0.87928 -1.89154,2.46824 0.0534,1.2266 0.0122,1.32412 -0.55864,1.32412 -0.48201,0 -0.75376,-0.29358 -1.24749,-1.34773 -1.00646,-2.14882 -2.02531,-2.59093 -3.34707,-1.4524 -0.62281,0.53649 -0.74235,0.84537 -0.74235,1.91823 0,1.09973 -0.0782,1.28994 -0.55868,1.35853 -0.48456,0.0692 -0.91018,-0.63667 -3.20825,-5.32047 -2.31324,-4.71471 -2.74847,-5.43468 -3.42864,-5.67179 -1.08068,-0.37673 -2.38283,0.18729 -2.62073,1.13515 -0.13989,0.5574 0.27801,1.65255 1.97516,5.17602 7.01152,14.556728 6.52316,13.441048 6.07822,13.885978 -0.37248,0.37248 -0.63444,0.28391 -2.75285,-0.93076 -1.28765,-0.73834 -2.52806,-1.34242 -2.75645,-1.34242 -0.66372,0 -1.51675,0.7252 -1.6968,1.44253 -0.35684,1.42178 0.29892,2.09855 6.75802,6.974672 5.60156,4.22875 7.65034,5.53074 9.35475,5.94491 1.42221,0.3456 4.87436,0.1685 6.3041,-0.32341 z M 72.251261,82.13852 C 67.538868,79.71831 63.233092,78.69001 57.749272,78.67518 l -3.414179,-0.009 -0.900727,1.0523 c -1.671691,1.95301 -4.214466,2.01407 -5.859287,0.14072 -1.096094,-1.24839 -1.302651,-2.51798 -0.661414,-4.06523 0.578597,-1.3961 2.035938,-2.40789 3.478619,-2.4151 0.990134,-0.005 2.829025,0.84455 3.044682,1.40653 0.0978,0.25492 0.807637,0.43552 2.215428,0.5637 6.770271,0.61641 13.479765,3.31237 18.475575,7.42373 1.029584,0.84731 0.965654,0.82571 -1.876708,-0.63408 z M 52.055735,78.95089 c 0.985964,-0.98597 1.016214,-2.07242 0.0884,-3.17505 -0.542107,-0.64427 -0.893277,-0.81405 -1.683701,-0.81405 -2.196648,0 -3.182502,2.42699 -1.620411,3.9891 1.039814,1.03981 2.175878,1.03981 3.215692,0 z"
       id="path5042"
       inkscape:export-filename="path5042.svg"
       inkscape:export-xdpi="92.770477"
       inkscape:export-ydpi="92.770477" /></g></svg>
