<svg xmlns:xlink="http://www.w3.org/1999/xlink" width="16" xmlns="http://www.w3.org/2000/svg" height="16" id="screenshot-415b8109-5f91-80db-8004-037679a6eff0" viewBox="0 0 16 16" style="-webkit-print-color-adjust: exact;" fill="none" version="1.1"><g id="shape-415b8109-5f91-80db-8004-037679a6eff0" xml:space="preserve" width="16" version="1.1" height="16" rx="0" ry="0" style="fill: rgb(0, 0, 0);"><g id="shape-415b8109-5f91-80db-8004-037679a9981a"><defs id="defs3809" rx="0" ry="0" style="fill: rgb(0, 0, 0);"/></g><g id="shape-415b8109-5f91-80db-8004-037679aa1f7e" rx="0" ry="0" style="fill: rgb(0, 0, 0);"><g id="shape-415b8109-5f91-80db-8004-037679af5f5d"><g class="fills" id="fills-415b8109-5f91-80db-8004-037679af5f5d"><path rx="0" ry="0" d="M11.301,14.008C11.198,13.932,10.779,13.416,10.370,12.861C9.559,11.761,9.530,11.686,9.701,11.148C9.778,10.906,9.773,10.870,9.636,10.694C9.453,10.461,9.475,10.222,9.686,10.125C9.903,10.025,10.021,10.066,10.229,10.316C10.373,10.488,10.447,10.535,10.543,10.515C10.759,10.470,11.073,10.543,11.299,10.691C11.432,10.777,11.805,11.227,12.259,11.846C12.873,12.685,13.002,12.897,13.006,13.079C13.013,13.404,12.889,13.760,12.708,13.935C12.365,14.266,11.697,14.300,11.301,14.008ZZM12.132,13.461C12.403,13.294,12.343,13.143,11.607,12.154C10.876,11.172,10.764,11.081,10.497,11.246C10.225,11.414,10.286,11.564,11.022,12.553C11.753,13.535,11.864,13.626,12.132,13.461ZZM5.583,10.482C4.104,10.095,2.888,8.941,2.464,7.522C2.287,6.927,2.252,6.480,2.330,5.812C2.629,3.250,5.135,1.528,7.760,2.082C8.444,2.226,8.873,2.403,9.402,2.756C10.196,3.285,10.792,4.063,11.099,4.971C11.482,6.100,11.378,7.246,10.796,8.343C10.472,8.953,10.086,9.365,9.390,9.843C8.895,10.183,8.662,10.301,8.229,10.429C7.359,10.686,6.434,10.705,5.583,10.482ZZM6.889,9.968C8.106,9.939,9.205,9.373,9.905,8.415C10.292,7.885,10.438,7.539,10.548,6.897C10.833,5.221,9.903,3.578,8.307,2.939C7.841,2.752,6.982,2.614,6.515,2.652C5.431,2.738,4.359,3.306,3.761,4.111C3.293,4.740,3.139,5.117,3.042,5.871C2.946,6.615,3.021,7.149,3.308,7.778C3.685,8.604,4.527,9.396,5.334,9.685C5.506,9.747,5.698,9.816,5.761,9.838C6.013,9.929,6.446,9.979,6.889,9.968ZZM4.203,7.827C4.149,7.755,4.113,7.645,4.124,7.583C4.135,7.521,4.205,7.427,4.281,7.375C4.356,7.324,4.471,7.290,4.536,7.300C4.600,7.310,4.698,7.378,4.752,7.450C4.806,7.523,4.841,7.633,4.830,7.695C4.820,7.757,4.749,7.850,4.674,7.902C4.598,7.954,4.483,7.988,4.419,7.978C4.354,7.968,4.257,7.900,4.203,7.827ZZM3.866,6.000C3.733,5.875,3.751,5.671,3.933,5.219C4.422,4.009,5.891,3.162,7.154,3.363C7.525,3.422,7.624,3.512,7.582,3.755C7.543,3.980,7.391,4.043,6.931,4.026C5.819,3.984,4.856,4.641,4.525,5.668C4.372,6.141,4.140,6.258,3.866,6.000ZZ" style="fill: rgb(251, 250, 250); fill-opacity: 1;"/></g></g></g></g></svg>