<svg xmlns:xlink="http://www.w3.org/1999/xlink" width="95" xmlns="http://www.w3.org/2000/svg" height="123" id="screenshot-415b8109-5f91-80db-8004-0369d33d5fef" viewBox="0 0 95 123" style="-webkit-print-color-adjust: exact;" fill="none" version="1.1"><g id="shape-415b8109-5f91-80db-8004-0369d33d5fef" width="210mm" height="297mm" version="1.1" xml:space="preserve" rx="0" ry="0" style="fill: rgb(0, 0, 0);"><g id="shape-415b8109-5f91-80db-8004-0369d33fb5a6"><defs id="defs2" rx="0" ry="0" style="fill: rgb(0, 0, 0);"/></g><g id="shape-415b8109-5f91-80db-8004-0369d34017ab" rx="0" ry="0" style="fill: rgb(0, 0, 0);"><g id="shape-415b8109-5f91-80db-8004-0369d3440142"><g class="fills" id="fills-415b8109-5f91-80db-8004-0369d3440142"><path rx="0" ry="0" d="M23.558,80.845C23.177,80.496,23.151,80.427,23.151,79.745C23.151,77.566,23.807,74.473,24.709,72.394C28.083,64.618,35.626,59.523,44.756,58.852C47.038,58.685,53.332,58.789,54.921,59.020C63.570,60.282,70.668,65.758,73.402,73.278C74.385,75.982,74.916,79.718,74.438,80.564C74.040,81.268,76.013,81.218,48.760,81.218L23.965,81.218ZM47.389,56.452C42.459,55.880,38.324,52.560,37.020,48.126C36.646,46.855,36.614,43.888,36.962,42.702C38.278,38.211,42.000,35.038,46.842,34.278C51.530,33.542,56.280,35.378,58.966,38.963C59.642,39.867,60.431,41.440,60.757,42.538C61.000,43.354,61.033,43.708,61.025,45.387C61.017,47.144,60.989,47.387,60.691,48.291C59.337,52.402,56.047,55.278,51.603,56.233C50.422,56.487,48.538,56.585,47.389,56.452ZZ" style="fill: rgb(255, 255, 255); fill-opacity: 1;"/></g></g></g></g></svg>